<svg width="442" height="240" viewBox="0 0 442 240" fill="none" xmlns="http://www.w3.org/2000/svg">
<path d="M227.534 7.83895C225.788 6.80423 223.792 6.26681 221.763 6.28486H175.964C172.733 6.28486 170.325 7.80665 170.336 9.83092L170.576 65.7352C170.628 66.2384 170.806 66.7206 171.092 67.1376C171.379 67.5546 171.765 67.893 172.216 68.122C173.367 68.8028 174.681 69.1565 176.018 69.1449H224.806C227.933 69.1449 230.28 67.6662 230.273 65.7029L230.04 11.464C229.961 10.6978 229.69 9.96399 229.252 9.33036C228.814 8.69673 228.223 8.18378 227.534 7.83895Z" fill="#5BD1FF"/>
<path d="M241.001 176.273H225.973L226.034 179.546H241.062L241.001 176.273Z" fill="#E4B472"/>
<path d="M178.042 169.723H164.991L165.045 172.996H178.096L178.042 169.723Z" fill="#E4B472"/>
<path d="M163.843 127.942L161.879 239.725H165.271L169.657 127.942H163.843Z" fill="#EFD3A8"/>
<path d="M175.748 127.942L173.785 239.725H177.177L181.563 127.942H175.748Z" fill="#E4B472"/>
<path d="M222.47 127.942L226.447 239.725H229.839L228.288 127.942H222.47Z" fill="#E4B472"/>
<path d="M234.971 124.977L239.099 239.722H242.491L240.786 124.977H234.971Z" fill="#EFD3A8"/>
<path d="M235.826 156.529H165.264L165.663 159.803H236.224L235.826 156.529Z" fill="#EFD3A8"/>
<path d="M226.684 121.625L225.944 38.4541L222.714 38.5151L223.471 121.481L226.684 121.625Z" fill="#EFD3A8"/>
<path d="M179.442 118.922L178.365 39.5632L175.415 39.6171L176.491 118.79L179.442 118.922Z" fill="#EFD3A8"/>
<path d="M178.975 84.7611L177.898 4.99268L174.944 5.12907L176.021 84.7073L178.975 84.7611Z" fill="#E4B472"/>
<path d="M226.353 85.8091L225.61 2.18237L222.38 2.33312L223.141 85.7445L226.353 85.8091Z" fill="#E4B472"/>
<path d="M224.408 149.599H177.959L178.221 152.872H224.67L224.408 149.599Z" fill="#E4B472"/>
<path d="M240.409 130.932H163.502L163.782 136.351H240.689L240.409 130.932Z" fill="#EFD3A8"/>
<path d="M240.409 125.914H163.502L163.782 131.334H240.689L240.409 125.914Z" fill="#E4B472"/>
<path d="M246.644 124.209C246.522 121.309 244.246 115.089 201.128 115.089C158.01 115.089 156.262 121.309 156.384 124.209C156.506 127.109 158.62 129.46 201.735 129.46C244.849 129.46 246.773 127.106 246.644 124.209Z" fill="#D464A1"/>
<path d="M246.643 124.209C246.572 122.454 245.703 119.479 235.459 117.39C233.396 120.426 224.889 124.191 191.347 124.191C179.856 124.493 168.362 123.717 157.016 121.873C156.549 122.552 156.326 123.369 156.384 124.191C156.506 127.091 158.62 129.442 201.735 129.442C244.849 129.442 246.773 127.109 246.643 124.209Z" fill="#B54287"/>
<path d="M228.758 3.58215C226.994 2.51708 224.969 1.9629 222.908 1.98141H176.373C173.103 1.98141 170.63 3.54988 170.63 5.62799L170.303 63.1294C170.349 63.643 170.523 64.1369 170.809 64.5654C171.096 64.9939 171.486 65.3431 171.944 65.5808C173.105 66.2811 174.439 66.6452 175.795 66.6324H225.356C228.532 66.6324 230.933 65.1142 230.944 63.0935L231.26 7.30409C231.189 6.52352 230.923 5.77337 230.486 5.12288C230.048 4.47239 229.454 3.9425 228.758 3.58215Z" fill="#43CAFF"/>
<path d="M228.758 1.60095C226.994 0.535877 224.969 -0.0182965 222.908 0.00020439H176.373C173.103 0.00020439 170.63 1.56865 170.63 3.64676L170.296 61.1482C170.342 61.6618 170.516 62.1557 170.802 62.5842C171.089 63.0127 171.479 63.3619 171.937 63.5996C173.098 64.2999 174.432 64.664 175.788 64.6512H225.349C228.525 64.6512 230.926 63.133 230.937 61.1123L231.253 5.32289C231.183 4.54303 230.918 3.79335 230.482 3.14291C230.046 2.49248 229.453 1.96221 228.758 1.60095Z" fill="#00ADF1"/>
<path d="M386.069 156.267H356.016L356.163 159.498H386.216L386.069 156.267Z" fill="#E4B472"/>
<path d="M429.287 177.109L400.552 178.078L400.799 181.309L429.535 180.34L429.287 177.109Z" fill="#E4B472"/>
<path d="M387.504 169.285L357.606 170.642L357.843 173.872L387.741 172.515L387.504 169.285Z" fill="#E4B472"/>
<path d="M355.337 129.417L352.613 239.722H356.005L361.152 129.417H355.337Z" fill="#EFD3A8"/>
<path d="M384.881 129.417L382.156 239.722H385.548L390.695 129.417H384.881Z" fill="#E4B472"/>
<path d="M426.484 126.495L429.833 239.725H433.224L432.298 126.495H426.484Z" fill="#E4B472"/>
<path d="M430.705 121.607L435.5 40.8013H432.428L427.636 121.607H430.705Z" fill="#EFD3A8"/>
<path d="M406.431 121.607L411.226 40.8013H408.153L403.358 121.607H406.431Z" fill="#EFD3A8"/>
<path d="M408.495 86.6919L413.29 5.88623H410.217L405.422 86.6919H408.495Z" fill="#E4B472"/>
<path d="M432.769 86.6919L437.564 5.88623H434.492L429.696 86.6919H432.769Z" fill="#E4B472"/>
<path d="M429.506 156.267L387.235 156.246L387.253 159.476L429.524 159.497L429.506 156.267Z" fill="#E4B472"/>
<path d="M401.154 127.418L401.302 132.765H355.158L355.011 127.418H401.154Z" fill="#EFD3A8"/>
<path d="M428.892 127.418L428.989 132.765H398.785L398.688 127.418H428.892Z" fill="#E4B472"/>
<path d="M441.986 8.37354C442.028 7.70705 441.938 7.03882 441.72 6.40739C441.503 5.77597 441.163 5.19385 440.719 4.69468C440.293 4.20528 439.768 3.81155 439.179 3.53937C438.591 3.26719 437.951 3.12274 437.302 3.11548H409.327C408.37 3.12761 407.454 3.50669 406.768 4.17454C406.082 4.84238 405.679 5.74804 405.641 6.70461L401.865 63.4954C401.837 63.9342 401.896 64.3743 402.039 64.7901C402.182 65.2059 402.406 65.5893 402.698 65.9181C402.978 66.2405 403.324 66.4999 403.712 66.6793C404.1 66.8587 404.521 66.954 404.948 66.9589H434.739C435.672 66.9494 436.566 66.5809 437.234 65.9299C437.903 65.2789 438.295 64.3955 438.329 63.4631L441.986 8.37354Z" fill="#1EC0FF"/>
<path d="M438.917 8.37354C438.959 7.70707 438.869 7.03887 438.651 6.40748C438.434 5.77608 438.094 5.19396 437.65 4.69468C437.224 4.20546 436.699 3.81186 436.111 3.53969C435.522 3.26753 434.882 3.12297 434.233 3.11548H406.259C405.301 3.12761 404.385 3.50669 403.699 4.17454C403.013 4.84238 402.61 5.74804 402.572 6.70461L398.789 63.5062C398.761 63.9452 398.821 64.3854 398.965 64.8012C399.108 65.2171 399.333 65.6004 399.625 65.9288C399.906 66.2514 400.251 66.511 400.639 66.6904C401.027 66.8698 401.449 66.965 401.876 66.9697H431.667C432.6 66.9601 433.493 66.5916 434.162 65.9407C434.83 65.2897 435.222 64.4062 435.256 63.4739L438.917 8.37354Z" fill="#00ADF1"/>
<path d="M397.332 127.633L400.293 239.725H403.685L403.146 127.63L397.332 127.633Z" fill="#EFD3A8"/>
<path d="M439.779 124.191C439.667 121.769 437.348 116.575 392.705 116.575C348.062 116.575 346.213 121.769 346.325 124.191C346.436 126.614 348.608 128.577 393.251 128.577C437.894 128.577 439.893 126.61 439.779 124.191Z" fill="#24BEFB"/>
<path d="M428.239 118.51C426.085 121.047 417.256 124.188 382.523 124.188C370.646 124.441 358.767 123.794 346.989 122.253C346.754 122.514 346.574 122.82 346.46 123.153C346.346 123.485 346.3 123.837 346.325 124.188C346.436 126.61 348.608 128.573 393.251 128.573C437.894 128.573 439.89 126.61 439.779 124.188C439.714 122.723 438.835 120.239 428.239 118.51Z" fill="#00ADF1"/>
<path d="M55.9245 156.267H85.9773L85.8302 159.498H55.7773L55.9245 156.267Z" fill="#E4B472"/>
<path d="M12.7133 177.109L41.449 178.078L41.205 181.309L12.4692 180.34L12.7133 177.109Z" fill="#E4B472"/>
<path d="M54.4923 169.285L84.3908 170.642L84.1539 173.872L54.2554 172.515L54.4923 169.285Z" fill="#E4B472"/>
<path d="M86.6592 129.417L89.3835 239.722H85.9916L80.8445 129.417H86.6592Z" fill="#EFD3A8"/>
<path d="M57.1052 129.417L59.8295 239.722H56.4376L51.2905 129.417H57.1052Z" fill="#E4B472"/>
<path d="M15.5165 126.495L12.1677 239.725H8.77588L9.70189 126.495H15.5165Z" fill="#E4B472"/>
<path d="M11.2918 121.607L6.49658 40.8013H9.56906L14.3643 121.607H11.2918Z" fill="#EFD3A8"/>
<path d="M35.5516 121.607L30.7563 40.8013H33.8288L38.6384 121.607H35.5516Z" fill="#EFD3A8"/>
<path d="M33.5058 86.6919L28.707 5.88623H31.7794L36.5747 86.6919H33.5058Z" fill="#E4B472"/>
<path d="M9.23178 86.6919L4.43652 5.88623H7.509L12.3043 86.6919H9.23178Z" fill="#E4B472"/>
<path d="M12.4942 156.267L54.7651 156.246L54.7435 159.476L12.4727 159.498L12.4942 156.267Z" fill="#E4B472"/>
<path d="M40.8422 127.418L40.6951 132.766H86.8386L86.9859 127.418H40.8422Z" fill="#EFD3A8"/>
<path d="M13.1008 127.418L13.0039 132.766H43.2076L43.3046 127.418H13.1008Z" fill="#E4B472"/>
<path d="M0.0100187 8.37354C-0.0319711 7.70707 0.0582971 7.03887 0.275752 6.40748C0.493208 5.77608 0.833538 5.19396 1.27702 4.69468C1.70306 4.20546 2.22766 3.81186 2.81654 3.53969C3.40543 3.26753 4.04529 3.12297 4.69399 3.11548H32.6688C33.626 3.12761 34.542 3.50669 35.2279 4.17454C35.9138 4.84238 36.3172 5.74804 36.3549 6.70461L40.1344 63.4954C40.1621 63.9345 40.1025 64.3746 39.9589 64.7905C39.8154 65.2063 39.5907 65.5896 39.2981 65.9181C39.0177 66.2406 38.6722 66.5002 38.2843 66.6796C37.8964 66.859 37.475 66.9542 37.0477 66.9589H7.25668C6.3237 66.9494 5.43028 66.5809 4.7619 65.9299C4.09351 65.2789 3.70151 64.3955 3.66742 63.4631L0.0100187 8.37354Z" fill="#1EC0FF"/>
<path d="M3.07961 8.37354C3.03702 7.70702 3.12709 7.03868 3.34458 6.4072C3.56206 5.77572 3.90263 5.19363 4.34661 4.69468C4.77236 4.2051 5.29696 3.81126 5.88592 3.53906C6.47487 3.26687 7.1148 3.12251 7.76358 3.11548H35.7383C36.6956 3.12761 37.6118 3.50669 38.2977 4.17454C38.9836 4.84238 39.3869 5.74804 39.4246 6.70461L43.2005 63.4954C43.2282 63.9345 43.1684 64.3746 43.0249 64.7905C42.8813 65.2063 42.6568 65.5896 42.3642 65.9181C42.0838 66.2406 41.7383 66.5002 41.3504 66.6796C40.9625 66.859 40.541 66.9542 40.1136 66.9589H10.3228C9.38979 66.9494 8.49626 66.5809 7.82788 65.9299C7.15949 65.2789 6.7676 64.3955 6.73351 63.4631L3.07961 8.37354Z" fill="#00ADF1"/>
<path d="M44.6647 127.633L41.7035 239.725H38.3118L38.8501 127.63L44.6647 127.633Z" fill="#EFD3A8"/>
<path d="M2.21822 124.191C2.3259 121.769 4.64464 116.575 49.2915 116.575C93.9384 116.575 95.7833 121.769 95.672 124.191C95.5608 126.614 93.3892 128.577 48.7423 128.577C4.09543 128.577 2.10695 126.61 2.21822 124.191Z" fill="#24BEFB"/>
<path d="M13.7576 118.51C15.9111 121.047 24.7407 124.188 59.474 124.188C71.3505 124.441 83.2291 123.794 95.0079 122.253C95.2428 122.514 95.4226 122.82 95.5367 123.153C95.6508 123.485 95.6968 123.837 95.6719 124.188C95.5606 126.61 93.3891 128.573 48.7422 128.573C4.09528 128.573 2.1069 126.61 2.21457 124.188C2.28277 122.723 3.16563 120.239 13.7576 118.51Z" fill="#00ADF1"/>
<path d="M297.554 36.3867C298.421 36.3867 299.253 36.7312 299.866 37.3444C300.479 37.9576 300.824 38.7892 300.824 39.6564V75.2103H294.284V39.6564C294.284 38.7892 294.629 37.9576 295.242 37.3444C295.855 36.7312 296.687 36.3867 297.554 36.3867Z" fill="#FFCA5F"/>
<path d="M306.621 73.4695H287.472C286.968 73.4695 286.485 73.6695 286.129 74.0256C285.773 74.3816 285.573 74.8646 285.573 75.3681H287.579L291.431 78.5337H302.665L306.516 75.3681H308.523C308.523 75.1185 308.474 74.8713 308.378 74.6407C308.282 74.4101 308.142 74.2007 307.965 74.0243C307.789 73.848 307.579 73.7082 307.348 73.613C307.117 73.5178 306.87 73.469 306.621 73.4695Z" fill="#FFE5B6"/>
<path d="M300.299 56.9452V39.3944C300.299 38.7366 300.038 38.1058 299.573 37.6407C299.108 37.1756 298.477 36.9143 297.819 36.9143H296.243C296.156 36.9178 296.068 36.9261 295.981 36.9394V58.1871L300.299 56.9452Z" fill="#FFE092"/>
<path d="M295.975 61.5143V67.1421C295.975 67.7992 296.235 68.4295 296.7 68.8945C297.164 69.3595 297.794 69.6212 298.451 69.6222H300.034C300.122 69.6174 300.209 69.6078 300.296 69.5935V60.2617L295.975 61.5143Z" fill="#FFE092"/>
<path d="M298.297 34.8577C291.836 34.8577 293.807 26.9113 295.368 24.9158C298.218 21.2764 296.714 18.7927 296.714 18.7927C298.92 20.9579 300.527 23.6571 301.38 26.6278C302.188 32.7867 300.282 34.8577 298.297 34.8577Z" fill="#FFEBBD"/>
<path d="M298.089 34.6099C293.832 34.6099 295.332 29.6462 296.416 28.4007C298.394 26.1288 297.464 24.5747 297.464 24.5747C298.851 25.9115 299.845 27.6037 300.335 29.4667C300.705 33.3178 299.399 34.6099 298.089 34.6099Z" fill="#FF996C"/>
<path d="M297.805 34.506C295.964 34.506 296.614 32.3526 297.088 31.8214C297.945 30.8379 297.543 30.1667 297.543 30.1667C298.143 30.7445 298.572 31.4758 298.785 32.2808C298.939 33.9318 298.39 34.506 297.805 34.506Z" fill="#ED4C4C"/>
<path d="M285.602 75.1709C285.602 75.2427 285.58 75.3108 285.58 75.3826H287.587L291.438 78.5482H302.672L306.524 75.3826H308.53C308.53 75.3108 308.53 75.2427 308.509 75.1709H285.602Z" fill="#E8A685"/>
<path d="M145.843 36.3867C146.71 36.3867 147.541 36.7312 148.155 37.3444C148.768 37.9576 149.112 38.7892 149.112 39.6564V75.2103H142.573V39.6564C142.573 38.7892 142.917 37.9576 143.53 37.3444C144.144 36.7312 144.975 36.3867 145.843 36.3867Z" fill="#FFCA5F"/>
<path d="M154.916 73.4695H135.768C135.264 73.4695 134.781 73.6695 134.425 74.0256C134.069 74.3817 133.869 74.8646 133.869 75.3681H135.875L139.727 78.5337H150.965L154.816 75.3681H156.822C156.822 75.1182 156.773 74.8707 156.677 74.6399C156.581 74.4091 156.441 74.1994 156.264 74.023C156.087 73.8466 155.876 73.7069 155.645 73.6119C155.414 73.5169 155.166 73.4686 154.916 73.4695Z" fill="#FFE5B6"/>
<path d="M148.588 56.9452V39.3944C148.588 38.7366 148.327 38.1058 147.862 37.6407C147.396 37.1756 146.766 36.9143 146.108 36.9143H144.525C144.437 36.9178 144.35 36.9261 144.263 36.9394V58.1871L148.588 56.9452Z" fill="#FFE092"/>
<path d="M144.253 61.5143V67.1421C144.253 67.7998 144.514 68.4307 144.979 68.8958C145.444 69.3609 146.075 69.6222 146.733 69.6222H148.316C148.403 69.6175 148.491 69.6079 148.578 69.5935V60.2617L144.253 61.5143Z" fill="#FFE092"/>
<path d="M146.582 34.8577C140.121 34.8577 142.092 26.9113 143.653 24.9158C146.503 21.2764 144.999 18.7927 144.999 18.7927C147.205 20.9579 148.812 23.6571 149.665 26.6278C150.473 32.7867 148.56 34.8577 146.582 34.8577Z" fill="#FFEBBD"/>
<path d="M146.381 34.6099C142.121 34.6099 143.621 29.6462 144.705 28.4007C146.683 26.1288 145.753 24.5747 145.753 24.5747C147.14 25.9119 148.133 27.604 148.624 29.4667C149.005 33.3178 147.688 34.6099 146.381 34.6099Z" fill="#FF996C"/>
<path d="M146.094 34.506C144.253 34.506 144.902 32.3526 145.376 31.8214C146.23 30.8379 145.832 30.1667 145.832 30.1667C146.433 30.744 146.864 31.4753 147.077 32.2808C147.228 33.9318 146.661 34.506 146.094 34.506Z" fill="#ED4C4C"/>
<path d="M133.89 75.1709C133.879 75.241 133.872 75.3117 133.869 75.3826H135.875L139.727 78.5482H150.965L154.816 75.3826H156.822C156.819 75.3117 156.812 75.241 156.801 75.1709H133.89Z" fill="#E8A685"/>
<path d="M216.533 72.2314C212.743 55.4882 210.791 40.3995 211.749 39.8144C212.707 39.2294 237.811 58.6968 240.262 61.6363C242.714 64.5758 216.533 72.2314 216.533 72.2314Z" fill="#F4E9CB"/>
<path d="M217.402 43.3748C217.165 49.5086 217.24 58.7219 217.836 68.5992C217.836 68.5992 227.854 67.3681 235.266 65.6632C238.747 64.1056 241.084 62.6125 240.273 61.6362C232.983 55.1425 225.348 49.0465 217.402 43.3748Z" fill="#EAD6AD"/>
<path d="M219.247 67.9281C218.213 50.7936 218.741 35.5865 219.767 35.1594C220.794 34.7323 242.434 58.0042 244.379 61.3062C246.324 64.6082 219.247 67.9281 219.247 67.9281Z" fill="#F4E9CB"/>
<path d="M226.135 40.981C225.27 46.964 224.405 55.2011 223.891 64.016C223.891 64.016 235.463 63.9765 243.108 62.9787C244.185 62.4332 244.706 61.8697 244.375 61.3098C238.66 54.2151 232.571 47.4292 226.135 40.981Z" fill="#EAD6AD"/>
<path d="M224.904 63.4954C225.905 46.3573 228.227 31.3224 229.297 31.0209C230.366 30.7195 249.099 56.3889 250.642 59.8919C252.186 63.3949 224.904 63.4954 224.904 63.4954Z" fill="#F4E9CB"/>
<path d="M235.101 37.7722C232.491 43.2026 229.232 50.7182 226.127 58.8655C226.127 58.8655 233.765 61.2451 240.703 62.8136C246.41 62.3111 251.32 61.4282 250.642 59.8848C245.856 52.2447 240.668 44.8635 235.101 37.7722Z" fill="#EAD6AD"/>
<path d="M227.585 58.9158C233.686 42.8724 240.438 29.2337 241.547 29.2696C242.656 29.3055 252.796 59.4183 253.212 63.2264C253.628 67.0344 227.585 58.9158 227.585 58.9158Z" fill="#F4E9CB"/>
<path d="M253.201 63.2263C251.098 55.0372 248.564 46.9648 245.61 39.0427C242.021 43.6045 237.602 49.5912 233.195 56.1234C233.195 56.1234 241.17 60.8144 247.911 63.9836C251.102 64.4322 253.323 64.3604 253.201 63.2263Z" fill="#EAD6AD"/>
<path d="M235.036 55.6425C244.641 41.4116 254.311 29.668 255.384 29.9516C256.457 30.2351 259.472 61.8733 259.009 65.6706C258.546 69.4679 235.036 55.6425 235.036 55.6425Z" fill="#F4E9CB"/>
<path d="M247.534 62.4222C253.237 65.2505 258.786 67.5009 259.02 65.6704C258.838 57.2303 258.212 48.8057 257.143 40.4316C252.329 44.0208 246.016 49.1317 239.555 54.8528C239.533 54.8563 243.245 58.5639 247.534 62.4222Z" fill="#EAD6AD"/>
<path d="M240.499 55.8542C253.356 44.4767 265.656 35.5218 266.625 36.0674C267.594 36.6129 262.605 68.0106 261.205 71.5603C259.805 75.1099 240.499 55.8542 240.499 55.8542Z" fill="#F4E9CB"/>
<path d="M214.333 61.6864C215.022 65.3904 215.604 68.1469 216.53 72.2313C222.882 70.3753 229.132 68.1828 235.251 65.6632C235.761 65.4335 236.253 65.2074 236.705 64.9813C238.844 64.5475 240.935 63.9019 242.947 63.0539C244.96 63.5202 246.997 63.8796 249.049 64.1306L249.303 64.1594C254.594 68.8647 260.43 73.4696 261.187 71.5637C262.031 68.6676 262.671 65.7161 263.104 62.7309C243.485 40.6793 218.54 52.4839 214.333 61.6864Z" fill="#EAD6AD"/>
<path d="M255.308 70.7958C255.308 69.2418 247.997 67.9856 238.977 67.9856C229.957 67.9856 222.646 69.2418 222.646 70.7958C222.646 72.3499 229.957 73.6062 238.977 73.6062C247.997 73.6062 255.308 72.3356 255.308 70.7958Z" fill="#779997"/>
<path d="M238.848 66.3345H238.963C238.797 70.7003 237.443 74.9381 235.047 78.5914H244.203C241.16 75.1792 239.284 70.8856 238.848 66.3345Z" fill="#779997"/>
<path d="M210.539 72.0951H268.718C268.718 72.0951 258.768 50.6824 236.928 50.6824C215.087 50.6824 210.539 72.0951 210.539 72.0951Z" fill="#9EC6C4"/>
<path d="M231.842 77.8701H247.408C248.135 77.8701 248.831 78.1586 249.345 78.6722C249.858 79.1858 250.147 79.8823 250.147 80.6086H229.103C229.103 79.8823 229.392 79.1858 229.905 78.6722C230.419 78.1586 231.115 77.8701 231.842 77.8701Z" fill="#BADBD8"/>
<path d="M226.544 72.0952H247.455L253.492 55.3627C249.085 52.6469 244.076 51.0614 238.909 50.7471L226.544 72.0952Z" fill="#BADBD8"/>
<path d="M211.476 70.4333H267.501C268.123 70.4333 268.719 70.6803 269.158 71.1198C269.598 71.5593 269.845 72.1555 269.845 72.7771H209.132C209.132 72.1555 209.379 71.5593 209.819 71.1198C210.258 70.6803 210.855 70.4333 211.476 70.4333Z" fill="#9EC6C4"/>
<path d="M300.081 163.205L156.359 178.958C218.766 191.074 274.446 198.953 340.216 194.287L300.081 163.205Z" fill="#C68960"/>
<path d="M121.816 89.958H117.15L121.052 239.714H125.718L121.816 89.958Z" fill="#723E30"/>
<path d="M147.558 89.958H142.892L146.794 239.714H151.46L147.558 89.958Z" fill="#723E30"/>
<path d="M125.718 239.722L124.924 209.304H120.258L121.051 239.722H125.718Z" fill="#A0614D"/>
<path d="M151.456 239.722L150.663 209.304H145.997L146.79 239.722H151.456Z" fill="#A0614D"/>
<path d="M313.698 89.958H318.364L319.534 239.714H314.868L313.698 89.958Z" fill="#723E30"/>
<path d="M287.956 89.958H292.622L293.792 239.714H289.126L287.956 89.958Z" fill="#723E30"/>
<path d="M314.865 239.722L314.628 209.304H319.294L319.545 239.722H314.865Z" fill="#A0614D"/>
<path d="M289.13 239.722L288.893 209.304H293.559L293.796 239.722H289.13Z" fill="#A0614D"/>
<path d="M329.139 79.4275H113.873L100.133 188.153C182.575 207.628 244.422 174.155 340.219 194.283L329.139 79.4275Z" fill="#24BEFB"/>
<path d="M329.138 79.4275H321.96C322.922 83.0387 323.415 86.7591 323.424 90.4964C323.424 126.768 270.185 183.426 214.135 183.426C158.085 183.426 96.0946 184.725 121.909 79.4275H113.89L100.15 188.153C182.592 207.628 244.439 174.155 340.237 194.283L329.138 79.4275Z" fill="#00ADF1"/>
<path d="M338.723 178.782L338.109 172.393C245.021 154.555 182.887 185.192 102.628 168.445L102.007 173.355C183.078 191.767 244.504 159.465 338.723 178.782Z" fill="#008BC2"/>
<path d="M337.305 164.077L336.691 157.71C245.079 140.583 183.397 170.222 104.404 154.368L103.78 159.311C183.566 176.783 244.58 145.503 337.305 164.077Z" fill="#008BC2"/>
</svg>
