<svg width="38" height="50" viewBox="0 0 38 50" fill="none" xmlns="http://www.w3.org/2000/svg">
<g clip-path="url(#clip0_87_239)">
<path d="M1.87803 5.39819C1.07947 5.39819 0.701498 6.90572 0 10.0025H7.08852V5.39819H1.87803Z" fill="#00ADF1"/>
<path d="M36.122 5.39819C36.922 5.39819 37.2986 6.90572 38 10.0025H30.9115V5.39819H36.122Z" fill="#00ADF1"/>
<mask id="mask0_87_239" style="mask-type:luminance" maskUnits="userSpaceOnUse" x="0" y="0" width="38" height="11">
<path d="M38 0H0V10.0024H38V0Z" fill="white"/>
</mask>
<g mask="url(#mask0_87_239)">
<g style="mix-blend-mode:multiply">
<path d="M7.70435 12.2558C12.951 12.2558 17.2043 11.2682 17.2043 10.0499C17.2043 8.8316 12.951 7.84399 7.70435 7.84399C2.45764 7.84399 -1.79565 8.8316 -1.79565 10.0499C-1.79565 11.2682 2.45764 12.2558 7.70435 12.2558Z" fill="#00ADF1"/>
</g>
<g style="mix-blend-mode:multiply">
<path d="M38.1283 10.0499C38.1283 11.2684 33.8751 12.2558 28.6283 12.2558C23.3815 12.2558 19.1283 11.2684 19.1283 10.0499C19.1283 8.83139 23.3815 7.84399 28.6283 7.84399C33.8751 7.84399 38.1283 8.83139 38.1283 10.0499Z" fill="#00ADF1"/>
</g>
</g>
<path d="M36.2441 5.39819C34.7469 5.39819 35.5573 43.1555 35.547 50L19.0596 42.5419L2.57218 50C2.56188 43.1481 3.37221 5.39819 1.87509 5.39819H36.2441Z" fill="#00ADF1"/>
</g>
<defs>
<clipPath id="clip0_87_239">
<rect width="38" height="50" fill="white"/>
</clipPath>
</defs>
</svg>
