<svg width="170" height="142" viewBox="0 0 170 142" fill="none" xmlns="http://www.w3.org/2000/svg">
<path d="M50.5329 1.22072C51.0584 0.762156 51.6756 0.420952 52.3432 0.219844C53.0108 0.0187358 53.7136 -0.0376605 54.4047 0.0544094C55.4335 0.234839 56.3747 0.748552 57.0834 1.51655C59.9768 4.48333 62.8831 7.4348 65.7536 10.4203C70.5893 7.48127 76.0544 5.73647 81.6972 5.33012C87.34 4.92377 92.9983 5.86754 98.2046 8.08341C99.5142 8.59346 100.746 9.33473 102.006 9.91533C104.423 8.74052 107.226 8.01881 109.89 8.73033C111.287 9.19466 112.604 9.87068 113.796 10.7348C117.407 12.9374 121.057 15.0762 124.708 17.2175C125.246 17.5304 125.67 18.0067 125.919 18.5774C126.168 19.1481 126.229 19.7833 126.092 20.3909C125.559 23.0066 125.087 25.635 124.514 28.2414C124.096 29.3002 123.38 30.2154 122.454 30.8768C121.528 31.5383 120.431 31.9178 119.295 31.9698C121.772 40.2297 121.476 49.0749 118.451 57.15C117.418 59.8548 116.095 62.4394 114.505 64.8585C114.635 68.8738 113.893 72.8694 112.331 76.5701C111.265 78.5391 109.658 80.1615 107.7 81.2455C106.744 81.7482 105.698 82.0571 104.622 82.1546C103.546 82.252 102.461 82.1361 101.43 81.8134C100.692 83.1027 99.6331 84.1792 98.3569 84.9388C97.0807 85.6983 95.6302 86.1151 94.1458 86.1488C87.6845 86.1533 81.2246 86.1533 74.7662 86.1488C73.2887 86.1088 71.8463 85.689 70.5777 84.9297C69.3091 84.1705 68.2571 83.0973 67.5227 81.8134C65.4861 82.4535 63.2806 82.2742 61.3739 81.3136C59.3396 80.2224 57.6746 78.5514 56.5899 76.5123C55.1323 73.0125 54.4004 69.2528 54.4387 65.4613C50.7832 60.1663 48.5062 54.0416 47.8143 47.6427C47.2395 42.3613 47.7193 37.0181 49.2258 31.9239C46.3843 28.5138 44.554 24.375 43.9425 19.9769C43.6608 17.5121 43.9084 15.0155 44.6686 12.6543C45.1863 10.6527 45.8741 8.6992 46.7247 6.81509C47.5646 4.69206 48.8653 2.78237 50.5329 1.22412M50.9431 5.05458C49.5549 7.32348 48.4699 9.76474 47.7158 12.316C47.6332 12.863 47.4943 13.3999 47.3014 13.9184C46.295 17.5619 46.6324 21.4463 48.2517 24.8614C49.3682 27.2834 50.8253 29.5328 52.5788 31.5414L52.3792 31.5218C51.0788 35.2646 50.4645 39.2117 50.566 43.173C50.4216 48.2473 51.4268 53.2885 53.5062 57.9185C54.5041 60.2382 55.78 62.4279 57.3059 64.4395C57.1538 68.1638 57.8079 71.8771 59.2235 75.3247C59.7137 76.2706 60.3948 77.1043 61.2237 77.7729C62.0527 78.4415 63.0113 78.9305 64.0389 79.2088C64.9693 79.3425 65.9175 79.2738 66.819 79.0076C67.7205 78.7413 68.554 78.2837 69.2629 77.6659C69.3035 79.1273 69.8973 80.5188 70.924 81.5587C71.9508 82.5985 73.3338 83.2092 74.7934 83.267C80.8164 83.2755 86.8404 83.2769 92.8651 83.2713C93.9811 83.3755 95.1062 83.2256 96.1561 82.8326C97.1774 82.3965 98.0535 81.678 98.6816 80.7615C99.3097 79.8449 99.6639 78.7682 99.7027 77.6573C101.359 79.043 103.744 79.8064 105.817 78.941C106.866 78.488 107.803 77.8124 108.565 76.9611C109.327 76.1099 109.895 75.1031 110.229 74.0105C111.364 70.785 111.82 67.3593 111.567 63.949C114.161 60.3295 116.024 56.2377 117.05 51.9033C117.627 49.6755 117.922 47.3838 117.928 45.0823C118.041 42.5919 117.942 40.0965 117.633 37.6228C117.062 33.9038 115.908 30.2984 114.213 26.9399C114.177 26.8804 114.154 26.8142 114.143 26.7453C114.133 26.6764 114.137 26.6061 114.155 26.5388C114.173 26.4714 114.204 26.4083 114.246 26.3532C114.289 26.2982 114.342 26.2522 114.403 26.2182C114.771 25.9223 115.03 25.465 115.498 25.3162C116.059 26.7359 116.818 28.3272 118.326 28.9257C119.008 29.1429 119.748 29.0896 120.392 28.7767C121.036 28.4638 121.536 27.9152 121.787 27.2442C122.308 24.7458 122.767 22.2347 123.288 19.7338C119.41 17.4436 115.519 15.1731 111.677 12.8218C110.79 12.1442 109.768 11.6645 108.68 11.4149C106.401 11.1952 104.12 11.8016 102.251 13.1235C102.106 13.1472 101.966 13.1931 101.836 13.2595C96.7876 9.99546 90.9197 8.22724 84.9099 8.15907V8.12677C84.5889 8.12252 84.2679 8.12252 83.9511 8.12677C80.805 8.08869 77.6751 8.58362 74.694 9.59061C71.4379 10.5421 68.3585 12.0185 65.577 13.9617C65.4503 13.9992 65.3147 13.9934 65.1917 13.9453C65.0687 13.8971 64.9652 13.8092 64.8976 13.6956C61.6018 10.263 58.2814 6.85363 54.9364 3.46748C54.7212 3.2033 54.4268 3.01551 54.0967 2.93191C53.7666 2.84831 53.4184 2.87336 53.1036 3.00334C52.2113 3.4773 51.4645 4.18515 50.9431 5.05118V5.05458Z" fill="#4D2814"/>
<path d="M91.9598 20.0951C92.4659 19.4819 93.1583 19.051 93.9316 18.8681C94.7049 18.6852 95.5168 18.7602 96.2436 19.0818C100.096 21.2588 103.829 23.8235 106.615 27.3156C109.486 30.8146 110.993 35.1814 112.026 39.5287C112.768 42.3847 113.071 45.3372 112.925 48.2846C112.898 48.9661 112.61 49.6111 112.122 50.0867C111.915 50.1586 111.693 50.1712 111.48 50.1231C111.267 50.0751 111.072 49.9682 110.917 49.8147C108.223 47.4345 105.527 44.9692 102.329 43.2793C98.906 41.5213 95.4045 39.5831 92.9976 36.4923C91.0532 34.0373 89.9885 31.0001 89.9742 27.8673C89.8893 25.2091 90.178 22.3146 91.9004 20.1656L91.9598 20.0976M99.9218 36.8246C99.7175 37.3401 99.6351 37.8959 99.6809 38.4486C99.7267 39.0012 99.8996 39.5358 100.186 40.0106C100.472 40.4853 100.865 40.8874 101.332 41.1853C101.799 41.4832 102.329 41.669 102.88 41.7281C103.431 41.7872 103.988 41.718 104.507 41.5259C105.027 41.3339 105.496 41.0241 105.876 40.6209C106.256 40.2177 106.538 39.7319 106.7 39.2015C106.862 38.6711 106.899 38.1105 106.809 37.5633C104.515 37.3075 102.218 37.0567 99.9218 36.8204V36.8246Z" fill="white"/>
<path d="M50.9422 5.05119C51.4666 4.18411 52.217 3.47642 53.113 3.00419C53.4278 2.87421 53.776 2.84917 54.1061 2.93277C54.4362 3.01636 54.7306 3.20416 54.9457 3.46834C58.2902 6.85392 61.6106 10.2633 64.9069 13.6965C64.9745 13.8101 65.078 13.8979 65.2011 13.9461C65.3241 13.9943 65.4597 14.0001 65.5864 13.9626C68.3657 12.0197 71.4428 10.543 74.6966 9.59061C75.3386 9.59061 75.9577 9.36534 76.6015 9.37979C78.7022 8.70739 80.8955 8.36975 83.101 8.37925C83.1789 8.37378 83.2571 8.38573 83.3298 8.41423C83.4025 8.44273 83.468 8.48706 83.5215 8.54402C83.575 8.60099 83.6152 8.66915 83.6391 8.74357C83.663 8.81799 83.6701 8.89681 83.6598 8.9743C83.7915 12.2837 83.6938 15.5947 83.6106 18.9041C83.3516 21.2452 83.3702 23.6093 83.3431 25.9648C83.118 28.0229 82.8921 30.0852 82.4802 32.1152C82.1174 34.4756 81.3536 36.7564 80.222 38.8589C80.002 39.0124 79.8444 39.2398 79.7778 39.4998C79.2996 39.9249 78.8784 40.5148 78.1913 40.5956C73.3538 41.7307 68.9121 44.1519 65.335 47.6036C64.9907 47.7038 64.6744 47.8828 64.4113 48.1266C64.1482 48.3704 63.9454 48.6721 63.819 49.008C64.2141 48.736 64.5951 48.444 64.9604 48.1332C64.9411 48.3137 64.8573 48.481 64.7245 48.6046C64.5917 48.7281 64.4189 48.7995 64.2377 48.8056C62.1996 51.072 60.5411 53.6533 59.3263 56.4496C58.2166 58.9803 57.5333 61.6776 57.3042 64.4318C55.7783 62.4203 54.5024 60.2306 53.5045 57.9109C51.4251 53.2808 50.4199 48.2396 50.5643 43.1654C50.4627 39.204 51.077 35.2569 52.3775 31.5142L52.5771 31.5337L52.5924 31.5465C52.7807 31.7336 53.0329 31.8423 53.2981 31.8508C54.2482 31.9364 55.2021 31.9741 56.156 31.9639C55.9338 30.9054 55.4824 29.9087 54.8336 29.0438C53.0501 26.4579 50.9957 24.0615 49.3719 21.3659C48.453 19.6798 47.8839 17.8252 47.6988 15.9135C47.5482 14.7161 47.5539 13.5042 47.7158 12.3083C48.4699 9.75709 49.555 7.31584 50.9431 5.04693M63.5897 38.1907C63.1854 38.1907 62.7837 38.2102 62.3846 38.24C62.2936 38.6558 62.2868 39.0856 62.3645 39.504C62.4422 39.9225 62.603 40.3211 62.8372 40.6763C63.2795 41.449 63.9929 42.0296 64.8388 42.3053C65.6847 42.581 66.6029 42.5321 67.4148 42.1682C68.0385 41.8912 68.565 41.4336 68.9264 40.8544C69.2879 40.2752 69.4678 39.6008 69.4429 38.9184C69.3894 38.4585 69.5516 37.8541 69.1109 37.5497C67.2773 37.8158 65.425 37.9629 63.588 38.1949L63.5897 38.1907Z" fill="#00ADF1"/>
<path d="M84.9133 8.16077C90.9231 8.22895 96.791 9.99717 101.839 13.2613C101.97 13.1948 102.11 13.1489 102.254 13.1252C103.682 12.9824 105.122 12.378 106.563 12.8014C107.619 13.092 108.541 13.7423 109.17 14.6401C110.467 16.3181 111.634 18.0932 112.661 19.9497C113.71 21.6827 114.659 23.4748 115.502 25.3171C115.034 25.4659 114.775 25.924 114.407 26.219C114.346 26.2531 114.293 26.299 114.251 26.3541C114.208 26.4092 114.177 26.4723 114.159 26.5396C114.142 26.607 114.138 26.6772 114.148 26.7461C114.158 26.8151 114.182 26.8812 114.218 26.9407C115.912 30.2992 117.066 33.9047 117.637 37.6237C117.946 40.0973 118.045 42.5928 117.932 45.0831C117.926 47.3847 117.631 49.6763 117.054 51.9042C116.028 56.2385 114.165 60.3304 111.571 63.9498C111.027 58.8989 109.049 54.1097 105.871 50.1488C101.969 45.256 96.5099 41.8497 90.4031 40.4978C89.0977 39.8314 88.4149 38.4083 87.8552 37.1187C86.8324 34.3303 86.15 31.4283 85.8229 28.476C85.0295 21.7346 84.7261 14.9444 84.915 8.15907M91.964 20.0916L91.9046 20.1597C90.1823 22.3087 89.8909 25.2032 89.9784 27.8614C89.9928 30.9941 91.0574 34.0314 93.0019 36.4863C95.4087 39.5763 98.9103 41.5154 102.334 43.2725C105.531 44.9641 108.228 47.4243 110.921 49.8079C111.076 49.9614 111.271 50.0683 111.484 50.1163C111.697 50.1644 111.92 50.1518 112.126 50.0799C112.614 49.6043 112.902 48.9593 112.929 48.2777C113.075 45.3304 112.772 42.3779 112.03 39.5219C110.996 35.1738 109.489 30.8069 106.619 27.3088C103.834 23.8167 100.1 21.252 96.2478 19.075C95.5197 18.7532 94.7065 18.6789 93.9322 18.8632C93.1579 19.0476 92.4652 19.4805 91.9598 20.0959L91.964 20.0916Z" fill="#00ADF1"/>
<path d="M74.6999 9.5906C77.681 8.58362 80.8109 8.08869 83.957 8.12677V8.13782C83.8721 8.53678 83.8421 8.94548 83.8679 9.35258C83.9825 13.7857 83.8398 18.2181 83.6317 22.647C83.5678 23.7577 83.4729 24.8651 83.3472 25.9691C83.3753 23.6135 83.3557 21.2486 83.6148 18.9083C83.6997 15.599 83.7957 12.2879 83.664 8.97855C83.6743 8.90105 83.6672 8.82223 83.6433 8.74781C83.6194 8.67339 83.5792 8.60523 83.5257 8.54827C83.4722 8.4913 83.4067 8.44696 83.334 8.41846C83.2613 8.38996 83.1831 8.37802 83.1052 8.38349C80.8997 8.37399 78.7064 8.71163 76.6057 9.38403C75.9611 9.36533 75.3419 9.5889 74.6999 9.5906Z" fill="#33A2C9"/>
<path d="M83.9571 8.13103C84.2739 8.13103 84.5949 8.13103 84.916 8.13103V8.16333C84.727 14.9487 85.0304 21.7389 85.8238 28.4802C86.151 31.4326 86.8334 34.3345 87.8562 37.123C88.4175 38.4126 89.1004 39.8365 90.404 40.5021C96.509 41.8535 101.967 45.2582 105.868 50.1488C109.047 54.1097 111.025 58.8989 111.569 63.9498C111.823 67.3602 111.368 70.7863 110.234 74.0122C109.899 75.1048 109.331 76.1116 108.569 76.9629C107.807 77.8142 106.87 78.4897 105.822 78.9427C103.747 79.8089 101.361 79.0447 99.707 77.6591C99.6682 78.7699 99.314 79.8466 98.6859 80.7632C98.0578 81.6798 97.1818 82.3982 96.1604 82.8344C95.1105 83.2273 93.9854 83.3773 92.8694 83.273C86.8441 83.2685 80.8202 83.267 74.7977 83.2687C73.3377 83.2115 71.954 82.6012 70.9267 81.5612C69.8994 80.5213 69.3053 79.1295 69.2646 77.6676C68.5558 78.2854 67.7222 78.743 66.8208 79.0093C65.9193 79.2755 64.971 79.3442 64.0407 79.2105C63.0131 78.9322 62.0544 78.4432 61.2255 77.7746C60.3966 77.106 59.7154 76.2723 59.2253 75.3264C57.8097 71.8788 57.1555 68.1655 57.3076 64.4412C57.5367 61.6869 58.22 58.9897 59.3297 56.4589C60.5445 53.6626 62.2031 51.0813 64.2411 48.815C64.4223 48.8089 64.5952 48.7375 64.728 48.6139C64.8608 48.4904 64.9445 48.323 64.9639 48.1426L65.3384 47.613C68.9156 44.1613 73.3572 41.7401 78.1948 40.6049C78.8818 40.5199 79.2988 39.9368 79.7812 39.5092C79.8634 39.53 79.9499 39.5252 80.0292 39.4954C80.1085 39.4657 80.1769 39.4124 80.2252 39.3428C80.2735 39.2731 80.2994 39.1903 80.2994 39.1055C80.2994 39.0207 80.2736 38.9379 80.2254 38.8682C81.357 36.7657 82.1208 34.4849 82.4836 32.1245C82.8964 30.0945 83.1214 28.0322 83.3465 25.9742C83.4739 24.8697 83.5687 23.7623 83.631 22.6521C83.8809 22.0061 83.987 21.3133 83.9418 20.6221C84.0166 18.4195 84.0777 16.217 84.1966 14.0144C84.2544 12.5268 84.0582 11.0391 84.1007 9.55406C84.1508 9.07886 84.1022 8.59844 83.958 8.14293V8.13188M82.8174 45.2795C81.0144 46.2801 79.1884 47.2483 77.455 48.367C77.1775 48.4835 76.9557 48.703 76.8363 48.9796C76.7169 49.2561 76.7092 49.5682 76.8147 49.8504C77.3183 50.2992 77.9306 50.6078 78.4394 51.055C78.864 50.7846 79.1961 50.397 79.6283 50.1403C79.8543 50.0465 80.1024 50.0194 80.3432 50.0624C80.584 50.1053 80.8075 50.2164 80.9872 50.3826C81.8493 51.3645 82.4096 52.5748 82.6008 53.8679C83.3189 56.6469 83.7893 59.4843 84.0064 62.3466C84.0232 64.8091 83.738 67.2643 83.1571 69.6573C83.1247 69.9145 83.0196 70.1571 82.8541 70.3565C82.6886 70.5559 82.4696 70.7038 82.2229 70.7828C81.1664 70.94 80.0997 70.7828 79.0398 70.8763C78.0487 70.9315 76.9964 70.6145 76.0529 71.0293C75.8712 71.1557 75.7309 71.333 75.6494 71.539C75.568 71.7449 75.5492 71.9703 75.5953 72.1869C75.6414 72.4036 75.7503 72.6017 75.9085 72.7566C76.0666 72.9115 76.2669 73.0162 76.4843 73.0576C81.8042 73.0788 87.1275 73.0661 92.4508 73.0644C92.6702 73.0204 92.8722 72.914 93.0326 72.7578C93.1929 72.6016 93.3048 72.4023 93.3547 72.184C93.4046 71.9657 93.3904 71.7376 93.3138 71.5271C93.2372 71.3167 93.1015 71.1329 92.923 70.9978C92.6387 70.8594 92.324 70.795 92.0083 70.8108C90.2287 70.8239 88.4492 70.8239 86.6697 70.8108C86.4614 70.7172 86.2778 70.5762 86.1335 70.3992C85.9892 70.2221 85.8881 70.0138 85.8383 69.7907C85.2264 67.3574 84.9279 64.8557 84.9499 62.3466C85.2001 59.1997 85.7446 56.0833 86.5763 53.0382C86.7866 51.8987 87.3921 50.87 88.2859 50.1335C89.1352 49.7824 89.8655 50.4506 90.3734 51.0507C90.9918 50.7214 91.5751 50.3301 92.1144 49.8827C92.225 49.6553 92.2492 49.3955 92.1827 49.1515C92.1161 48.9076 91.9633 48.6962 91.7526 48.5566C89.9692 47.3112 88.0209 46.3413 86.1372 45.2727C85.6346 44.9744 85.0607 44.8175 84.4764 44.8187C83.892 44.8199 83.3188 44.9791 82.8174 45.2795Z" fill="#4D2814"/>
<path d="M102.255 13.1261C104.124 11.8041 106.406 11.1978 108.684 11.4174C109.772 11.6671 110.794 12.1467 111.682 12.8243C115.524 15.1756 119.414 17.4462 123.292 19.7363C122.772 22.2372 122.312 24.7518 121.792 27.2468C121.54 27.9177 121.04 28.4663 120.396 28.7792C119.752 29.0921 119.012 29.1455 118.33 28.9282C116.822 28.3332 116.063 26.7384 115.502 25.3188C114.659 23.4765 113.71 21.6844 112.661 19.9514C111.634 18.0949 110.467 16.3198 109.17 14.6418C108.541 13.744 107.619 13.0937 106.563 12.8031C105.123 12.3789 103.683 12.9833 102.255 13.1261Z" fill="white"/>
<path d="M47.3048 13.915C47.4978 13.3966 47.6366 12.8596 47.7193 12.3126C47.5573 13.5085 47.5516 14.7204 47.7023 15.9178C47.8874 17.8295 48.4565 19.6841 49.3754 21.3702C51 24.0666 53.0553 26.463 54.8371 29.0481C54.8838 30.0274 55.6532 30.7525 55.8154 31.7063C54.7405 31.714 53.6659 31.6621 52.5967 31.5507L52.5814 31.538C50.828 29.5294 49.3708 27.28 48.2543 24.8581C46.6352 21.4428 46.2982 17.5584 47.3048 13.915Z" fill="white"/>
<path d="M99.9227 36.8204C102.216 37.0567 104.515 37.3075 106.809 37.5591C106.9 38.1062 106.863 38.6669 106.701 39.1973C106.539 39.7277 106.257 40.2134 105.877 40.6167C105.496 41.0199 105.028 41.3296 104.508 41.5217C103.989 41.7137 103.432 41.7829 102.881 41.7238C102.33 41.6647 101.8 41.479 101.333 41.181C100.865 40.8831 100.473 40.4811 100.187 40.0063C99.9005 39.5316 99.7276 38.997 99.6817 38.4443C99.6359 37.8917 99.7184 37.3359 99.9227 36.8204Z" fill="#4D2814"/>
<path d="M63.5889 38.1949C65.4259 37.9629 67.2782 37.8158 69.1092 37.554C69.5491 37.8583 69.3878 38.4627 69.4413 38.9226C69.4662 39.6051 69.2863 40.2794 68.9248 40.8586C68.5633 41.4379 68.0369 41.8955 67.4132 42.1725C66.6012 42.5364 65.6831 42.5852 64.8372 42.3095C63.9912 42.0338 63.2779 41.4532 62.8356 40.6806C62.7031 39.9872 62.6462 39.2815 62.6657 38.5758C62.9706 38.4474 63.2764 38.3157 63.5889 38.1949Z" fill="#4D2814"/>
<path d="M83.957 8.13698C84.1012 8.59249 84.1498 9.07292 84.0997 9.54811C84.0572 11.0358 84.2526 12.5234 84.1957 14.0085C84.0785 16.211 84.0173 18.4136 83.9409 20.6162C83.9861 21.3074 83.88 22.0002 83.6301 22.6461C83.8381 18.2172 83.9808 13.7849 83.8662 9.35174C83.841 8.94457 83.8715 8.53586 83.957 8.13698Z" fill="#17363C"/>
<path d="M54.8378 29.0481C55.4866 29.913 55.938 30.9097 56.1601 31.9681C55.2062 31.9784 54.2524 31.9407 53.3023 31.8551C53.0371 31.8466 52.7849 31.7378 52.5966 31.5507C53.6658 31.6621 54.7404 31.714 55.8153 31.7063C55.654 30.7525 54.8845 30.0274 54.8378 29.0481Z" fill="white"/>
<path d="M62.3837 38.2442C62.7838 38.2145 63.1855 38.1949 63.5889 38.1949C63.2763 38.3165 62.9697 38.45 62.664 38.5758C62.6444 39.2815 62.7014 39.9872 62.8339 40.6806C62.6 40.3252 62.4398 39.9265 62.3624 39.508C62.2851 39.0896 62.2924 38.6599 62.3837 38.2442Z" fill="#15323A"/>
<path d="M79.7811 39.5035C79.8478 39.2437 80.0054 39.0165 80.2253 38.8631C80.2735 38.9327 80.2993 39.0155 80.2993 39.1002C80.2993 39.1849 80.2734 39.2676 80.2251 39.3372C80.1768 39.4068 80.1084 39.46 80.0291 39.4897C79.9498 39.5195 79.8633 39.5242 79.7811 39.5035Z" fill="#15383F"/>
<path d="M82.8173 45.2753C83.318 44.9749 83.8903 44.8153 84.474 44.8134C85.0577 44.8114 85.6311 44.9672 86.1338 45.2642C88.0175 46.3328 89.9691 47.3044 91.7492 48.5481C91.9598 48.6877 92.1127 48.8991 92.1792 49.1431C92.2458 49.387 92.2215 49.6468 92.111 49.8742C91.5717 50.3216 90.9884 50.7129 90.37 51.0422C89.8604 50.4421 89.1343 49.7739 88.2824 50.125C87.3886 50.8615 86.7832 51.8902 86.5728 53.0297C85.7412 56.0748 85.1967 59.1912 84.9465 62.3381C84.9244 64.8472 85.223 67.3489 85.8348 69.7822C85.8847 70.0052 85.9858 70.2135 86.1301 70.3906C86.2745 70.5677 86.458 70.7086 86.6663 70.8023C87.1416 71.0246 87.6715 71.1029 88.1907 71.0276C89.7661 70.9868 91.3441 71.1024 92.9195 70.9893C93.098 71.1244 93.2337 71.3082 93.3103 71.5186C93.3869 71.729 93.4011 71.9572 93.3513 72.1755C93.3014 72.3938 93.1895 72.5931 93.0291 72.7493C92.8688 72.9055 92.6667 73.0119 92.4473 73.0559C87.1257 73.0559 81.8016 73.0712 76.4809 73.0491C76.2635 73.0077 76.0632 72.903 75.905 72.7481C75.7469 72.5932 75.6379 72.3951 75.5918 72.1784C75.5458 71.9618 75.5646 71.7364 75.646 71.5304C75.7274 71.3245 75.8678 71.1472 76.0494 71.0208C76.9938 70.606 78.0461 70.923 79.0364 70.8678C80.0971 70.7743 81.1596 70.9315 82.2195 70.7743C82.4661 70.6953 82.6851 70.5474 82.8506 70.348C83.0162 70.1486 83.1213 69.906 83.1536 69.6488C83.7345 67.2558 84.0197 64.8006 84.0029 62.3381C83.7859 59.4758 83.3155 56.6384 82.5974 53.8594C82.4062 52.5663 81.8458 51.356 80.9837 50.374C80.8041 50.2079 80.5806 50.0968 80.3397 50.0539C80.0989 50.0109 79.8508 50.038 79.6249 50.1318C79.1935 50.3868 78.8606 50.777 78.4359 51.0465C77.9263 50.5993 77.3157 50.2908 76.8112 49.8419C76.7057 49.5598 76.7135 49.2476 76.8329 48.9711C76.9523 48.6945 77.174 48.475 77.4516 48.3585C79.1884 47.244 81.0143 46.2758 82.8173 45.2753Z" fill="#28A9E0"/>
<path d="M63.8224 49.0109C63.9488 48.6754 64.1515 48.3739 64.4147 48.1304C64.6778 47.8868 64.994 47.708 65.3383 47.6079L64.9638 48.137C64.5984 48.4475 64.2175 48.7392 63.8224 49.0109Z" fill="#25A5CA"/>
<path d="M86.6663 70.8066C88.4458 70.8196 90.2254 70.8196 92.0049 70.8066C92.3204 70.7909 92.6347 70.8552 92.9187 70.9934C91.3433 71.1064 89.7653 70.9934 88.1899 71.0316C87.671 71.1067 87.1414 71.0284 86.6663 70.8066Z" fill="#449EC1"/>
<path d="M12.6849 82.0029C15.3849 81.3176 18.2455 81.7141 20.6579 83.1081C23.4664 84.7003 24.9739 87.9535 25.0546 91.0988C25.0036 91.5944 24.3318 91.7398 23.9726 91.4949C23.8492 91.1487 23.7865 90.7838 23.7875 90.4162C23.6891 89.1499 23.2921 87.9251 22.629 86.8422C21.966 85.7594 21.0559 84.8493 19.9734 84.1868C19.4693 83.8439 18.8982 83.6122 18.2979 83.507C17.6976 83.4017 17.0818 83.4254 16.4913 83.5764C15.2996 83.9327 14.2569 84.669 13.5219 85.6732C12.7869 86.6775 12.3999 87.8946 12.4199 89.1394C12.4131 96.3047 12.3817 103.47 12.3689 110.634C12.1898 112.397 12.6369 114.168 13.6318 115.635C14.1233 116.251 14.7721 116.722 15.5094 117C16.2467 117.277 17.0452 117.35 17.8204 117.21C20.1391 116.767 22.2677 115.626 23.9225 113.941C23.1792 111.268 23.488 108.411 24.7854 105.959C25.2596 105.054 25.9296 104.267 26.7465 103.654C27.5634 103.041 28.5066 102.618 29.5073 102.416C29.9473 102.331 30.0832 102.85 30.0687 103.181C30.0985 106.09 30.1095 108.999 30.1222 111.909C30.0655 113.64 30.3695 115.364 31.0148 116.972C31.1708 117.395 31.4662 117.751 31.8523 117.983C32.2384 118.215 32.692 118.308 33.138 118.247C34.4442 117.754 35.5259 116.802 36.1801 115.567C37.6906 112.728 38.1399 109.443 37.4472 106.302C36.7606 106.543 36.0276 106.624 35.3048 106.538C34.582 106.452 33.8886 106.2 33.2781 105.803C33.0696 105.64 32.8988 105.433 32.7775 105.197C32.6562 104.961 32.5872 104.701 32.5753 104.436C32.5634 104.171 32.6088 103.906 32.7084 103.66C32.808 103.414 32.9595 103.193 33.1525 103.011C34.4136 101.8 36.6099 102.319 37.6086 103.626C38.3946 104.754 38.8545 106.078 38.9377 107.451C39.2465 110.581 38.577 113.729 37.0218 116.462C36.3146 117.786 35.1535 118.81 33.752 119.345C32.5622 119.693 31.3076 119.756 30.0888 119.531C28.87 119.305 27.7209 118.797 26.7336 118.047C25.8252 117.314 25.0629 116.416 24.4864 115.4C23.4771 116.322 22.3918 117.157 21.2422 117.897C19.0058 119.276 16.3741 119.871 13.7626 119.587C11.6555 119.37 9.62335 118.685 7.81438 117.582C6.00541 116.479 4.46525 114.986 3.30627 113.211C1.09633 109.627 -0.0522083 105.488 -0.00591159 101.277C-0.0852913 97.0063 0.956363 92.7897 3.01497 89.0484C4.05615 87.2716 5.45228 85.7289 7.1161 84.5166C8.77992 83.3044 10.6757 82.4486 12.6849 82.0029Z" fill="#00ADF1"/>
<path d="M110.619 83.8833C112.378 82.5774 114.48 81.8134 116.666 81.685C118.137 81.7053 119.567 82.1732 120.765 83.0266C121.964 83.88 122.874 85.0784 123.375 86.4625C124.059 88.7079 124.384 91.0472 124.339 93.394C124.262 99.9847 124.339 106.578 124.36 113.171C126.483 113.156 128.599 113.175 130.719 113.171C131.317 113.197 131.913 113.077 132.454 112.82C132.72 112.581 132.896 112.259 132.955 111.906C133.014 111.554 132.952 111.192 132.78 110.879C132.293 109.835 131.608 108.898 131.094 107.87C131.074 107.739 131.1 107.605 131.167 107.491C131.234 107.377 131.338 107.289 131.462 107.242C131.586 107.196 131.722 107.193 131.847 107.234C131.973 107.275 132.081 107.359 132.153 107.47C132.982 108.732 133.681 110.074 134.402 111.4C135.461 113.16 135.94 115.209 135.772 117.257C135.743 117.719 135.571 118.16 135.28 118.52C134.988 118.88 134.592 119.14 134.147 119.264C132.248 119.642 130.309 119.774 128.377 119.656H115.407C115.219 119.679 115.029 119.661 114.85 119.602C114.67 119.544 114.506 119.446 114.368 119.317C114.23 119.188 114.123 119.03 114.053 118.855C113.983 118.679 113.952 118.491 113.963 118.302C113.94 108.651 113.911 98.9986 113.878 89.3451C113.918 88.8653 113.851 88.3826 113.681 87.9323C113.511 87.4819 113.243 87.0753 112.895 86.7422C112.633 86.5443 112.314 86.4373 111.985 86.4373C111.657 86.4373 111.338 86.5443 111.075 86.7422C109.987 87.4146 109.553 88.6854 109.081 89.8024C108.63 90.8047 108.55 91.9965 107.761 92.8245C107.457 92.9532 107.122 92.9872 106.799 92.9218C106.477 92.8564 106.181 92.6947 105.952 92.4581C105.509 91.9259 105.771 91.2068 105.988 90.6432C106.977 88.0844 108.354 85.5325 110.619 83.8833Z" fill="#00ADF1"/>
<path d="M55.9709 90.7341C56.9909 89.6155 58.4098 88.9437 59.9208 88.864C61.3634 88.6869 62.8174 89.0885 63.9651 89.981C64.3668 90.3558 64.8322 90.8472 64.7031 91.449C64.6352 91.8962 64.0611 91.9472 63.7485 91.7151C63.1685 91.3555 62.5595 90.8004 61.8156 91.0044C60.8398 91.3343 60.4907 92.4411 60.4015 93.3685C60.3123 94.7286 60.3778 96.0947 60.3608 97.4566C61.7383 97.4804 63.1209 97.4098 64.4959 97.4973C64.5539 98.5073 64.5255 99.5203 64.411 100.525C63.0589 100.521 61.7086 100.532 60.3582 100.519C60.3429 109.206 60.3709 117.895 60.3429 126.582C60.2403 128.526 59.7456 130.43 58.8887 132.177C58.0318 133.925 56.8304 135.481 55.3568 136.752C52.4558 139.308 48.8712 140.957 45.0449 141.498C42.1512 141.949 39.1894 141.589 36.4876 140.458C35.7149 140.151 35.0218 139.673 34.4609 139.06C33.8999 138.446 33.4856 137.712 33.2493 136.915C32.7643 135.181 33.5533 133.429 34.4442 131.976C35.9866 129.554 38.1292 127.574 40.6635 126.228C40.6589 117.658 40.6589 109.088 40.6635 100.519C39.6397 100.565 38.6141 100.542 37.5933 100.451C37.6061 99.4619 37.5806 98.4741 37.6086 97.4872C38.6226 97.4293 39.6392 97.4676 40.6533 97.4591C40.5502 95.1619 41.2964 92.9073 42.7493 91.126C43.3222 90.4765 44.0332 89.9637 44.83 89.6254C45.6269 89.287 46.4894 89.1317 47.3541 89.1708C48.1016 89.1185 48.8504 89.2515 49.5343 89.5581C50.2181 89.8648 50.8158 90.3356 51.2743 90.9288C51.4892 91.2569 51.5588 91.8639 51.1741 92.0823C50.3452 92.2464 49.8773 91.2756 49.0696 91.2824C48.0148 91.2059 47.4195 92.3127 47.2691 93.2104C47.1499 94.6239 47.1145 96.0431 47.163 97.4608C49.304 97.454 51.4425 97.4608 53.5835 97.4608C53.4951 94.9969 54.3471 92.5918 55.9666 90.7341M47.1689 100.517C47.135 108.259 47.1969 116.001 47.1392 123.744C49.2229 123.231 51.3413 122.871 53.4774 122.667C53.5241 115.288 53.5453 107.91 53.5988 100.532C51.4561 100.517 49.3125 100.542 47.1698 100.517M47.1851 125.201C47.1426 126.957 47.0721 128.981 45.7141 130.282C44.2644 131.567 42.1472 131.565 40.339 131.278C39.9416 131.229 39.2655 131.07 39.3946 130.529C39.8575 129.722 40.2167 128.861 40.4639 127.964C38.2315 129.286 36.4063 131.197 35.189 133.49C34.8798 134.046 34.7362 134.68 34.775 135.316C34.8138 135.952 35.0335 136.563 35.4081 137.078C35.9927 137.686 36.6921 138.172 37.4658 138.508C38.2395 138.844 39.0721 139.022 39.9153 139.033C45.5816 139.382 51.0883 135.443 52.9483 130.138C53.6608 128.19 53.4578 126.097 53.4799 124.067C51.36 124.307 49.2581 124.686 47.1876 125.201H47.1851Z" fill="#00ADF1"/>
<path d="M154.459 94.6666C154.374 94.2747 154.825 94.0859 155.146 94.1242C156.558 94.12 157.97 94.1157 159.383 94.1242C159.69 94.0987 160.063 94.2772 160.012 94.6436C160.024 97.4251 160.028 100.209 160.008 102.992C161.035 102.546 162.16 102.374 163.273 102.493C164.387 102.612 165.45 103.018 166.359 103.672C167.672 104.692 168.662 106.071 169.208 107.641C170.082 109.841 170.233 112.262 169.638 114.553C169.397 115.589 168.922 116.555 168.25 117.378C167.578 118.201 166.726 118.859 165.76 119.301C164.085 119.861 162.268 119.819 160.621 119.182C160.476 119.15 160.187 119.086 160.045 119.052C160.045 119.134 160.028 119.216 159.995 119.291C159.963 119.367 159.915 119.435 159.854 119.491C159.794 119.546 159.723 119.589 159.645 119.616C159.567 119.643 159.485 119.654 159.403 119.647C158.059 119.66 156.716 119.643 155.374 119.654C155.048 119.688 154.722 119.597 154.462 119.399C154.455 111.152 154.455 102.907 154.462 94.6615M160.351 104.85C160.237 104.916 160.144 105.014 160.085 105.132C160.026 105.25 160.002 105.382 160.017 105.514C160.029 109.004 160.008 112.496 160.028 115.984C160.502 117.152 162.661 116.876 162.654 115.545C162.654 112.2 162.673 108.854 162.645 105.509C162.576 105.282 162.451 105.077 162.281 104.91C162.112 104.744 161.904 104.623 161.676 104.557C161.449 104.492 161.208 104.484 160.976 104.535C160.745 104.586 160.53 104.694 160.351 104.85Z" fill="#00ADF1"/>
<path d="M141.395 102.586C142.6 102.125 143.902 101.971 145.182 102.139C145.318 102.156 145.449 102.207 145.561 102.287C145.674 102.367 145.764 102.474 145.825 102.598C145.885 102.722 145.914 102.86 145.908 102.998C145.902 103.136 145.862 103.27 145.791 103.388C145.555 103.853 144.956 103.763 144.544 103.931C144.1 104.133 143.714 104.443 143.42 104.833C143.126 105.222 142.935 105.679 142.862 106.161C142.624 107.281 142.544 108.428 142.624 109.57C142.506 111.634 142.643 113.705 143.033 115.736C143.119 116.255 143.324 116.748 143.631 117.175C143.938 117.603 144.339 117.954 144.804 118.201C145.696 118.51 146.545 117.895 147.212 117.369C148.845 116.034 149.551 113.932 149.91 111.928C149.109 109.587 148.037 107.349 147.232 105.012C147.133 104.79 147.085 104.549 147.09 104.307C147.095 104.064 147.153 103.825 147.26 103.608C147.367 103.39 147.521 103.199 147.711 103.047C147.9 102.895 148.12 102.787 148.356 102.731C149.408 102.624 150.101 103.618 150.514 104.45C151.409 106.823 151.637 109.395 151.173 111.888C151.989 114.23 152.823 116.564 153.522 118.944C153.548 119.591 152.517 119.772 152.366 119.127C151.798 117.401 151.237 115.67 150.656 113.949C150.374 115.044 149.878 116.072 149.196 116.973C148.515 117.875 147.661 118.632 146.685 119.201C144.919 119.801 142.999 119.76 141.26 119.086C139.521 118.412 138.074 117.147 137.173 115.513C136.054 113.276 135.809 110.703 136.484 108.294C136.797 107.024 137.405 105.845 138.258 104.853C139.111 103.861 140.186 103.084 141.395 102.586Z" fill="#00ADF1"/>
<path d="M68.9503 102.633C70.0054 102.362 71.1092 102.34 72.1739 102.571C73.2386 102.801 74.2349 103.277 75.0838 103.961C75.5627 104.401 75.9382 104.941 76.1834 105.544C76.4287 106.147 76.5375 106.796 76.5021 107.446C76.4593 108.039 76.2757 108.614 75.9666 109.122C75.6574 109.63 75.2316 110.057 74.7246 110.368C73.5208 111.091 72.1205 111.418 70.7211 111.303C70.3279 111.303 70.1665 110.932 70.051 110.623C70.1656 110.344 70.3567 109.959 70.7304 110.061C71.4582 110.195 72.2088 110.133 72.9046 109.88C73.6004 109.628 74.2163 109.194 74.6889 108.624C75.0669 107.994 75.1938 107.244 75.0445 106.524C74.8951 105.805 74.4804 105.168 73.8829 104.74C73.3483 104.298 72.6686 104.071 71.9758 104.102C71.2831 104.133 70.6267 104.421 70.1342 104.91C69.4466 105.899 69.109 107.089 69.1754 108.292C69.1754 110.211 69.1244 112.131 69.1304 114.05C69.0961 114.612 69.174 115.175 69.3595 115.707C69.545 116.238 69.8343 116.728 70.2106 117.146C70.5745 117.45 71.0094 117.658 71.4747 117.748C71.9401 117.839 72.4209 117.811 72.8723 117.666C74.4664 117.152 75.9089 116.252 77.0711 115.046C77.5195 114.656 77.7217 113.905 78.396 113.855C77.7378 111.3 78.1035 108.588 79.4151 106.298C80.4258 104.541 82.0846 103.252 84.0352 102.706C85.1188 102.386 86.2631 102.33 87.3727 102.543C88.4823 102.756 89.5248 103.231 90.4133 103.93C91.2237 104.621 91.736 105.599 91.8429 106.659C91.9499 107.719 91.6434 108.779 90.9874 109.619C90.339 110.248 89.5588 110.725 88.7034 111.014C87.848 111.304 86.9388 111.399 86.042 111.293C85.9042 111.271 85.777 111.205 85.6789 111.106C85.5809 111.006 85.5169 110.878 85.4963 110.74C85.4757 110.601 85.4995 110.46 85.5643 110.336C85.6291 110.212 85.7316 110.112 85.8569 110.05C86.5919 110.203 87.3533 110.166 88.0704 109.944C88.7875 109.722 89.4369 109.323 89.9581 108.782C90.1832 108.455 90.3397 108.086 90.4179 107.697C90.4961 107.308 90.4945 106.907 90.4132 106.518C90.3319 106.13 90.1725 105.762 89.9448 105.437C89.717 105.112 89.4257 104.837 89.0884 104.628C88.5687 104.25 87.9335 104.065 87.2923 104.105C86.6512 104.146 86.0442 104.409 85.5758 104.849C84.8695 105.779 84.5059 106.924 84.5465 108.092C84.5405 110.15 84.493 112.208 84.5099 114.266C84.5439 115.509 84.9439 116.962 86.1533 117.547C87.5461 118.152 89.0918 117.502 90.2969 116.758C91.4028 116.067 92.3752 115.182 93.1675 114.146C93.249 114.047 93.3575 113.973 93.4799 113.934C93.6023 113.895 93.7333 113.893 93.8572 113.927C93.981 113.961 94.0924 114.03 94.1778 114.126C94.2633 114.222 94.3191 114.34 94.3386 114.467C94.3811 114.876 94.0066 115.136 93.7925 115.434C92.0447 117.389 89.8145 119.131 87.1546 119.533C85.5796 119.838 83.95 119.681 82.4623 119.08C80.7834 118.24 79.4731 116.809 78.7824 115.062C77.0753 116.964 75.0405 118.779 72.4893 119.39C70.2693 119.884 67.6866 119.842 65.8581 118.312C62.3761 115.607 61.8665 110.26 63.9048 106.53C64.4226 105.56 65.1401 104.712 66.0098 104.04C66.8796 103.368 67.8818 102.888 68.9503 102.633Z" fill="#00ADF1"/>
<path d="M95.8911 125.929L97.0495 125.38C97.0495 128.108 97.0563 130.837 97.0495 133.565C96.6562 133.565 96.2648 133.565 95.8758 133.576C95.88 133.44 95.8911 133.167 95.8953 133.031C95.5257 133.409 95.0317 133.64 94.5048 133.682C93.9779 133.724 93.4537 133.574 93.029 133.259C92.6379 132.864 92.3455 132.383 92.1759 131.853C92.0063 131.324 91.9642 130.762 92.0532 130.214C92.0336 129.67 92.1768 129.133 92.4643 128.671C92.7518 128.21 93.1706 127.845 93.6668 127.623C94.0471 127.506 94.4511 127.486 94.8409 127.568C95.2307 127.649 95.5935 127.828 95.8953 128.088C95.8911 127.366 95.8885 126.648 95.8911 125.929ZM93.8036 128.784C93.5601 129.064 93.3807 129.394 93.278 129.751C93.1754 130.108 93.1518 130.483 93.209 130.85C93.2286 131.552 93.4638 132.451 94.2401 132.655C94.5584 132.708 94.8854 132.668 95.181 132.538C95.4766 132.408 95.7281 132.195 95.9047 131.925C95.8724 131.054 95.9089 130.184 95.8919 129.316C95.7946 129.138 95.6618 128.982 95.5017 128.858C95.3416 128.734 95.1577 128.644 94.9614 128.594C94.7651 128.544 94.5606 128.535 94.3607 128.567C94.1608 128.6 93.9697 128.673 93.7993 128.783L93.8036 128.784Z" fill="#4D2814"/>
<path d="M150.661 125.946C150.928 125.752 151.235 125.619 151.559 125.558C151.883 125.496 152.217 125.508 152.536 125.591C152.532 125.949 152.532 126.306 152.532 126.668C152.2 126.64 151.73 126.436 151.518 126.798C151.479 127.073 151.461 127.35 151.464 127.628C151.819 127.632 152.173 127.632 152.532 127.636C152.532 127.962 152.532 128.287 152.532 128.617C152.173 128.61 151.824 128.613 151.471 128.617C151.487 130.266 151.48 131.915 151.476 133.567C151.084 133.567 150.693 133.567 150.306 133.567C150.315 131.92 150.293 130.275 150.317 128.63C150.062 128.617 149.818 128.613 149.569 128.61C149.569 128.283 149.569 127.955 149.569 127.631C149.814 127.631 150.062 127.631 150.313 127.631C150.315 127.066 150.218 126.391 150.661 125.946Z" fill="#4D2814"/>
<path d="M154.947 125.939C155.212 125.75 155.514 125.621 155.834 125.559C156.153 125.498 156.482 125.506 156.798 125.583C156.798 125.943 156.798 126.305 156.802 126.669C156.463 126.633 155.978 126.449 155.771 126.813C155.763 127.017 155.746 127.43 155.737 127.634C156.086 127.634 156.441 127.634 156.796 127.634C156.796 127.962 156.801 128.292 156.807 128.622C156.452 128.618 156.102 128.612 155.753 128.612C155.748 130.265 155.746 131.919 155.753 133.573C155.359 133.569 154.968 133.569 154.579 133.573C154.579 131.921 154.568 130.272 154.586 128.621C154.331 128.621 154.082 128.621 153.835 128.627C153.835 128.295 153.835 127.968 153.835 127.639C154.084 127.635 154.334 127.633 154.587 127.631C154.585 127.056 154.47 126.364 154.947 125.939Z" fill="#4D2814"/>
<path d="M88.5941 128.253C88.9098 127.899 89.3271 127.651 89.789 127.542C90.251 127.434 90.7351 127.471 91.1751 127.649C91.0902 128.055 91.0052 128.462 90.9347 128.877C90.1925 128.447 89.0103 128.502 88.7597 129.472C88.6067 130.832 88.5632 132.201 88.6298 133.567C88.234 133.567 87.8408 133.567 87.4476 133.567C87.4544 131.588 87.4603 129.611 87.4476 127.634L88.6485 127.629C88.634 127.782 88.6094 128.098 88.5941 128.253Z" fill="#4D2814"/>
<path d="M79.3192 126.472C79.9342 125.934 80.7044 125.607 81.5179 125.537C82.3314 125.467 83.1459 125.659 83.8433 126.084C84.1092 126.29 84.3191 126.56 84.4535 126.869C84.588 127.178 84.6428 127.515 84.6127 127.851C84.5827 128.186 84.4689 128.509 84.2817 128.789C84.0946 129.069 83.8401 129.297 83.5418 129.453C85.3252 129.744 85.366 132.407 83.9664 133.209C83.1727 133.627 82.2688 133.786 81.3804 133.665C80.492 133.544 79.6635 133.149 79.01 132.534C79.269 132.26 79.5349 131.994 79.8049 131.732C80.2251 132.111 80.7382 132.373 81.2922 132.49C81.8461 132.606 82.4209 132.574 82.9583 132.396C83.1584 132.307 83.3318 132.167 83.4614 131.99C83.591 131.813 83.6724 131.606 83.6975 131.388C83.7226 131.17 83.6906 130.95 83.6046 130.748C83.5186 130.546 83.3817 130.371 83.2072 130.238C82.6732 130.005 82.0873 129.917 81.5086 129.983C81.5086 129.628 81.5086 129.273 81.5086 128.921C82.0182 128.898 82.6058 129.006 83.0245 128.643C83.1498 128.526 83.2462 128.381 83.306 128.22C83.3658 128.059 83.3873 127.887 83.3689 127.716C83.3506 127.546 83.2928 127.382 83.2001 127.237C83.1075 127.093 82.9825 126.972 82.8352 126.885C82.3921 126.677 81.8964 126.609 81.4138 126.689C80.9311 126.77 80.4844 126.996 80.1327 127.336C79.8514 127.052 79.5802 126.763 79.3192 126.472Z" fill="#4D2814"/>
<path d="M136.288 126.428C137.668 125.03 140.402 125.252 141.312 127.085C140.95 127.318 140.565 127.511 140.162 127.662C140.004 127.38 139.777 127.144 139.502 126.975C139.227 126.806 138.913 126.711 138.591 126.698C138.268 126.685 137.948 126.755 137.66 126.902C137.373 127.048 137.127 127.266 136.948 127.534C136.657 128.071 136.48 128.663 136.428 129.272C136.377 129.881 136.451 130.494 136.648 131.073C136.776 131.533 137.065 131.932 137.462 132.197C137.859 132.461 138.338 132.574 138.812 132.514C139.123 132.465 139.421 132.354 139.687 132.186C139.953 132.018 140.182 131.797 140.36 131.537C140.708 131.732 141.033 131.966 141.327 132.235C140.856 132.918 140.15 133.405 139.344 133.602C138.538 133.799 137.687 133.694 136.954 133.305C136.455 132.996 136.035 132.575 135.729 132.074C135.423 131.573 135.239 131.007 135.191 130.422C135.063 129.716 135.095 128.991 135.285 128.3C135.475 127.609 135.817 126.969 136.288 126.428Z" fill="#4D2814"/>
<path d="M144.624 127.604C145.21 127.436 145.835 127.48 146.391 127.728C146.947 127.976 147.398 128.412 147.665 128.96C147.986 129.64 148.093 130.402 147.97 131.144C147.847 131.886 147.5 132.572 146.976 133.112C146.693 133.344 146.364 133.513 146.011 133.608C145.657 133.703 145.287 133.72 144.927 133.66C144.566 133.6 144.222 133.463 143.918 133.258C143.614 133.054 143.358 132.787 143.166 132.475C142.232 130.868 142.62 128.159 144.624 127.604ZM144.811 128.643C143.735 129.205 143.714 130.719 144.069 131.733C144.136 131.942 144.254 132.131 144.413 132.283C144.572 132.435 144.766 132.544 144.978 132.602C145.19 132.659 145.413 132.663 145.627 132.612C145.84 132.561 146.038 132.458 146.201 132.312C146.528 131.905 146.735 131.416 146.8 130.898C146.864 130.381 146.783 129.855 146.565 129.381C146.429 129.051 146.169 128.788 145.84 128.65C145.512 128.512 145.142 128.509 144.811 128.643Z" fill="#4D2814"/>
<path d="M158.79 128.541C159.003 128.242 159.28 127.994 159.601 127.816C159.922 127.638 160.278 127.534 160.644 127.511C161.01 127.488 161.377 127.546 161.717 127.683C162.058 127.82 162.363 128.03 162.612 128.3C163.168 129.092 163.422 130.057 163.326 131.02C161.996 131.067 160.665 131.027 159.335 131.04C159.448 131.695 159.752 132.464 160.476 132.624C160.764 132.688 161.064 132.677 161.347 132.591C161.629 132.506 161.885 132.349 162.09 132.136C162.316 132.367 162.548 132.596 162.785 132.824C162.535 133.108 162.226 133.334 161.879 133.485C161.532 133.636 161.156 133.709 160.778 133.698C160.4 133.687 160.029 133.592 159.691 133.422C159.353 133.251 159.058 133.008 158.824 132.709C158.417 132.093 158.197 131.371 158.191 130.631C158.186 129.892 158.395 129.167 158.793 128.544M159.343 130.091C160.298 130.091 161.252 130.1 162.21 130.091C162.133 129.381 161.727 128.54 160.909 128.533C159.985 128.374 159.444 129.304 159.342 130.091H159.343Z" fill="#4D2814"/>
<path d="M165.411 128.628C165.606 128.332 165.863 128.08 166.163 127.891C166.463 127.701 166.8 127.578 167.152 127.53C167.503 127.482 167.861 127.509 168.201 127.611C168.541 127.712 168.856 127.885 169.124 128.118C169.463 128.517 169.716 128.983 169.866 129.485C170.017 129.987 170.061 130.515 169.997 131.036C168.671 131.036 167.344 131.04 166.017 131.031C166.123 131.698 166.436 132.472 167.174 132.628C167.461 132.687 167.76 132.672 168.04 132.584C168.321 132.496 168.574 132.338 168.777 132.125C169.033 132.349 169.254 132.61 169.434 132.898C168.99 133.35 168.4 133.628 167.77 133.684C167.139 133.739 166.51 133.568 165.994 133.201C165.385 132.622 164.994 131.851 164.888 131.017C164.781 130.183 164.966 129.339 165.411 128.626M166.03 130.088C166.981 130.088 167.934 130.088 168.884 130.088C168.829 129.336 168.338 128.466 167.481 128.519C166.616 128.445 166.109 129.339 166.03 130.09L166.03 130.088Z" fill="#4D2814"/>
<path d="M118.56 127.634C118.952 127.634 119.342 127.634 119.738 127.618C120.295 129.12 120.757 130.66 121.267 132.179C121.776 130.664 122.237 129.131 122.766 127.623C123.166 127.631 123.565 127.631 123.969 127.629C123.246 129.6 122.579 131.587 121.892 133.569C121.467 133.569 121.054 133.569 120.637 133.558C119.961 131.577 119.251 129.608 118.56 127.634Z" fill="#4D2814"/>
<path d="M102.071 125.65C102.49 125.65 102.913 125.65 103.334 125.646C103.709 127.606 104.115 129.556 104.467 131.52C105.033 129.59 105.401 127.6 105.898 125.649C106.298 125.649 106.7 125.653 107.103 125.657C107.558 127.634 108.003 129.615 108.5 131.584C108.854 129.601 109.277 127.634 109.649 125.655C110.057 125.655 110.463 125.65 110.873 125.65C110.312 128.286 109.746 130.921 109.2 133.56C108.726 133.566 108.254 133.566 107.784 133.56C107.344 131.66 106.935 129.751 106.477 127.857C106.03 129.76 105.59 131.662 105.143 133.565C104.682 133.558 104.222 133.558 103.763 133.565C103.19 130.93 102.637 128.289 102.071 125.65Z" fill="#4D2814"/>
<path d="M112.854 128.002C113.738 127.531 114.761 127.386 115.741 127.592C116.116 127.664 116.456 127.857 116.709 128.143C116.962 128.429 117.113 128.791 117.138 129.171C117.183 130.631 117.134 132.096 117.162 133.558C116.777 133.558 116.398 133.554 116.014 133.558L116.022 133.058C115.631 133.397 115.145 133.608 114.63 133.663C114.115 133.717 113.595 133.612 113.142 133.362C112.895 133.2 112.69 132.982 112.542 132.727C112.395 132.471 112.308 132.185 112.29 131.89C112.272 131.595 112.323 131.3 112.439 131.029C112.554 130.757 112.732 130.516 112.957 130.325C113.402 130.014 113.926 129.835 114.468 129.809C115.01 129.783 115.549 129.91 116.022 130.176C116.001 129.672 116.099 129.051 115.635 128.708C115.245 128.552 114.825 128.489 114.406 128.522C113.988 128.556 113.582 128.686 113.222 128.902C113.097 128.599 112.974 128.302 112.85 128.006M113.671 131.045C113.549 131.171 113.462 131.327 113.419 131.497C113.377 131.667 113.379 131.845 113.427 132.014C113.475 132.183 113.567 132.336 113.693 132.458C113.819 132.58 113.975 132.667 114.145 132.709C114.48 132.763 114.824 132.735 115.147 132.63C115.47 132.524 115.764 132.343 116.003 132.101C116.003 131.756 116.009 131.413 116.016 131.075C115.671 130.842 115.266 130.715 114.85 130.709C114.434 130.703 114.025 130.819 113.674 131.042L113.671 131.045Z" fill="#4D2814"/>
<path d="M125.495 128.628C125.69 128.331 125.947 128.08 126.247 127.89C126.547 127.701 126.884 127.578 127.236 127.53C127.587 127.481 127.945 127.509 128.285 127.61C128.625 127.712 128.94 127.885 129.207 128.118C129.548 128.517 129.802 128.982 129.953 129.484C130.105 129.986 130.152 130.514 130.091 131.035C128.762 131.046 127.433 131.035 126.106 131.041C126.115 131.4 126.236 131.747 126.452 132.034C126.668 132.32 126.969 132.531 127.311 132.638C127.594 132.679 127.882 132.657 128.155 132.572C128.428 132.487 128.679 132.343 128.889 132.148C129.104 132.378 129.325 132.601 129.556 132.823C129.318 133.093 129.025 133.31 128.698 133.46C128.371 133.61 128.016 133.691 127.656 133.696C127.296 133.702 126.939 133.632 126.607 133.492C126.275 133.351 125.977 133.143 125.73 132.881C125.272 132.277 125.005 131.549 124.963 130.791C124.922 130.034 125.108 129.281 125.498 128.631M126.12 130.09C127.069 130.09 128.017 130.09 128.967 130.09C128.905 129.392 128.52 128.586 127.732 128.532C126.807 128.349 126.184 129.275 126.118 130.09H126.12Z" fill="#4D2814"/>
</svg>
